<svg xmlns="http://www.w3.org/2000/svg" width="5.462" height="5.477" viewBox="0 0 5.462 5.477">
    <g id="Group_143" data-name="Group 143" transform="translate(-89.437 -244.65)">
        <path id="Path_2456" data-name="Path 2456" d="M.9,1.868H2.352A.935.935,0,0,0,2.352,0H.9a.935.935,0,0,0,0,1.868Z" transform="translate(89.484 248.744) rotate(-45)" fill="#4ac496" />
        <path id="Path_2457" data-name="Path 2457" d="M.9,1.868H2.533A.935.935,0,0,0,2.533,0H.9a.935.935,0,0,0,0,1.868Z" transform="translate(91.148 247.08) rotate(-45)" fill="#4ac496" />
        <path id="Path_2458" data-name="Path 2458" d="M.934,3.256a.93.93,0,0,0,.934-.9V.9A.935.935,0,0,0,0,.9V2.351A.93.93,0,0,0,.934,3.256Z" transform="translate(91.229 247.824) rotate(-45)" fill="#4ac496" />
        <path id="Path_2459" data-name="Path 2459" d="M.934,3.436a.93.93,0,0,0,.934-.9V.9A.935.935,0,0,0,0,.9V2.532A.93.93,0,0,0,.934,3.436Z" transform="translate(89.437 246.033) rotate(-45)" fill="#4ac496" />
    </g>
</svg>
