<svg xmlns="http://www.w3.org/2000/svg" width="9.768" height="9.767" viewBox="0 0 9.768 9.767">
    <g id="Group_145" data-name="Group 145" transform="translate(-239 -143.224)">
        <path id="Path_2456" data-name="Path 2456" d="M4080.211,435.059h1.595a1.03,1.03,0,0,0,0-2.059h-1.595a1.03,1.03,0,0,0,0,2.059Z" transform="translate(-3840.214 -285.934)" fill="#4ac496" />
        <g id="Group_144" data-name="Group 144" transform="translate(239.643 143.224)">
            <path id="Path_2457" data-name="Path 2457" d="M4135.395,435.059h1.794a1.03,1.03,0,0,0,0-2.059h-1.794a1.03,1.03,0,0,0,0,2.059Z" transform="translate(-4129.06 -429.157)" fill="#4ac496" />
            <path id="Path_2458" data-name="Path 2458" d="M4115.03,458.151a1.025,1.025,0,0,0,1.029-1V455.56a1.03,1.03,0,0,0-2.059,0v1.595A1.025,1.025,0,0,0,4115.03,458.151Z" transform="translate(-4110.873 -448.384)" fill="#4ac496" />
            <path id="Path_2459" data-name="Path 2459" d="M4115.03,401.326a1.025,1.025,0,0,0,1.029-1v-1.794a1.03,1.03,0,0,0-2.059,0v1.794A1.025,1.025,0,0,0,4115.03,401.326Z" transform="translate(-4110.873 -397.539)" fill="#4ac496" />
            <path id="Path_2456-2" data-name="Path 2456" d="M1,2.059H2.591A1.03,1.03,0,0,0,2.591,0H1A1.03,1.03,0,0,0,1,2.059Z" transform="translate(0.052 7.601) rotate(-45)" fill="#4ac496" />
            <path id="Path_2457-2" data-name="Path 2457" d="M1,2.059H2.791A1.03,1.03,0,0,0,2.791,0H1A1.03,1.03,0,0,0,1,2.059Z" transform="translate(4.28 3.372) rotate(-45)" fill="#4ac496" />
            <path id="Path_2458-2" data-name="Path 2458" d="M1.029,3.588a1.025,1.025,0,0,0,1.029-1V1A1.03,1.03,0,0,0,0,1V2.591A1.025,1.025,0,0,0,1.029,3.588Z" transform="translate(4.369 6.588) rotate(-45)" fill="#4ac496" />
            <path id="Path_2459-2" data-name="Path 2459" d="M1.029,3.787a1.025,1.025,0,0,0,1.029-1V1A1.03,1.03,0,0,0,0,1V2.791A1.025,1.025,0,0,0,1.029,3.787Z" transform="translate(0 2.218) rotate(-45)" fill="#4ac496" />
        </g>
    </g>
</svg>
