<svg xmlns="http://www.w3.org/2000/svg" width="18.613" height="18.613" viewBox="0 0 18.613 18.613">
    <g id="Group_173" data-name="Group 173" transform="translate(-25.524 -483.592)">
        <path id="Path_2456" data-name="Path 2456" d="M4081.114,436.923h3.039a1.963,1.963,0,0,0,0-3.923h-3.039a1.963,1.963,0,0,0,0,3.923Z" transform="translate(-4053.69 57.914)" fill="#4a69ff" />
        <path id="Path_2457" data-name="Path 2457" d="M4136.3,436.923h3.419a1.963,1.963,0,0,0,0-3.923H4136.3a1.963,1.963,0,0,0,0,3.923Z" transform="translate(-4097.478 57.914)" fill="#4a69ff" />
        <path id="Path_2458" data-name="Path 2458" d="M4115.962,461.4a1.953,1.953,0,0,0,1.961-1.9v-3.039a1.963,1.963,0,0,0-3.923,0V459.5A1.954,1.954,0,0,0,4115.962,461.4Z" transform="translate(-4081.293 40.804)" fill="#4a69ff" />
        <path id="Path_2459" data-name="Path 2459" d="M4115.962,404.756a1.953,1.953,0,0,0,1.961-1.9v-3.419a1.963,1.963,0,0,0-3.923,0v3.419A1.953,1.953,0,0,0,4115.962,404.756Z" transform="translate(-4081.293 86.053)" fill="#4a69ff" />
    </g>
</svg>
