<svg xmlns="http://www.w3.org/2000/svg" xmlns:xlink="http://www.w3.org/1999/xlink" width="825.9" height="825.9" viewBox="0 0 825.9 825.9">
    <defs>
        <linearGradient id="linear-gradient" x1="0.5" x2="0.5" y2="1" gradientUnits="objectBoundingBox">
            <stop offset="0" stop-color="#4a69ff" />
            <stop offset="1" stop-color="#4ad384" />
        </linearGradient>
    </defs>
    <path id="Subtraction_2" data-name="Subtraction 2" d="M-522-3273h-501a49.688,49.688,0,0,1-19.462-3.929,49.831,49.831,0,0,1-15.893-10.715,49.834,49.834,0,0,1-10.716-15.893A49.689,49.689,0,0,1-1073-3323v-467a49.687,49.687,0,0,1,3.929-19.462,49.833,49.833,0,0,1,10.716-15.893,49.836,49.836,0,0,1,15.893-10.716A49.689,49.689,0,0,1-1023-3840h501a49.687,49.687,0,0,1,19.462,3.929,49.831,49.831,0,0,1,15.893,10.716,49.831,49.831,0,0,1,10.715,15.893A49.686,49.686,0,0,1-472-3790v467a49.685,49.685,0,0,1-3.929,19.462,49.827,49.827,0,0,1-10.715,15.893,49.828,49.828,0,0,1-15.893,10.715A49.688,49.688,0,0,1-522-3273ZM-924.66-3723.639a25.029,25.029,0,0,0-25,25v286.391a25.028,25.028,0,0,0,25,25H-618.1a25.028,25.028,0,0,0,25-25v-286.391a25.029,25.029,0,0,0-25-25Z" transform="translate(3474.016 2381.535) rotate(-45)" fill="url(#linear-gradient)" />
</svg>
