<svg id="Group_90" data-name="Group 90" xmlns="http://www.w3.org/2000/svg" width="24.223" height="24.223" viewBox="0 0 24.223 24.223">
    <path id="Path_2140" data-name="Path 2140" d="M5.368,146.365l-.843,3.148-3.082.065a12.133,12.133,0,0,1-.089-11.31h0l2.744.5L5.3,141.5a7.228,7.228,0,0,0,.068,4.867Z" transform="translate(0 -131.726)" fill="#fbbb00" />
    <path id="Path_2141" data-name="Path 2141" d="M273.262,208.176a12.107,12.107,0,0,1-4.318,11.708h0l-3.456-.176L265,216.654a7.218,7.218,0,0,0,3.106-3.686h-6.476v-4.791h11.634Z" transform="translate(-249.25 -198.327)" fill="#518ef8" />
    <path id="Path_2142" data-name="Path 2142" d="M48.759,316.327h0a12.115,12.115,0,0,1-18.25-3.705l3.925-3.213a7.2,7.2,0,0,0,10.38,3.688Z" transform="translate(-29.066 -294.77)" fill="#28b446" />
    <path id="Path_2143" data-name="Path 2143" d="M47.112,2.788,43.188,6A7.2,7.2,0,0,0,32.57,9.772l-3.946-3.23h0A12.114,12.114,0,0,1,47.112,2.788Z" transform="translate(-27.27)" fill="#f14336" />
</svg>
