<svg xmlns="http://www.w3.org/2000/svg" xmlns:xlink="http://www.w3.org/1999/xlink" width="76.659" height="80.356" viewBox="0 0 76.659 80.356">
  <defs>
    <linearGradient id="linear-gradient" x1="0.646" y1="0.093" x2="0.374" y2="0.852" gradientUnits="objectBoundingBox">
      <stop offset="0" stop-color="#534b78"/>
      <stop offset="0.235" stop-color="#463f65"/>
      <stop offset="0.73" stop-color="#2f2a44"/>
      <stop offset="1" stop-color="#272338"/>
    </linearGradient>
    <linearGradient id="linear-gradient-2" x1="-0.062" y1="0.79" x2="0.827" y2="0.194" gradientUnits="objectBoundingBox">
      <stop offset="0" stop-color="#c43aff"/>
      <stop offset="0.981" stop-color="#34a5d6"/>
    </linearGradient>
    <linearGradient id="linear-gradient-3" x1="0.12" y1="0.813" x2="0.949" y2="0.21" xlink:href="#linear-gradient-2"/>
    <linearGradient id="linear-gradient-4" x1="-0.41" y1="0.289" x2="0.384" y2="0.496" gradientUnits="objectBoundingBox">
      <stop offset="0" stop-color="#fff"/>
      <stop offset="0.026" stop-color="#fff" stop-opacity="0.973"/>
      <stop offset="0.515" stop-color="#fff" stop-opacity="0.455"/>
      <stop offset="0.849" stop-color="#fff" stop-opacity="0.129"/>
      <stop offset="1" stop-color="#fff" stop-opacity="0"/>
    </linearGradient>
    <linearGradient id="linear-gradient-5" x1="-0.566" y1="0.334" x2="0.317" y2="0.465" xlink:href="#linear-gradient-4"/>
    <linearGradient id="linear-gradient-6" x1="1.801" y1="0.556" x2="0.835" y2="0.517" xlink:href="#linear-gradient-4"/>
    <linearGradient id="linear-gradient-7" x1="1.407" y1="0.637" x2="0.744" y2="0.531" xlink:href="#linear-gradient-4"/>
    <linearGradient id="linear-gradient-8" x1="-0.406" y1="0.243" x2="0.112" y2="0.39" gradientUnits="objectBoundingBox">
      <stop offset="0" stop-color="#fff"/>
      <stop offset="0.323" stop-color="#fff" stop-opacity="0.663"/>
      <stop offset="0.792" stop-color="#fff" stop-opacity="0.188"/>
      <stop offset="1" stop-color="#fff" stop-opacity="0"/>
    </linearGradient>
    <linearGradient id="linear-gradient-9" x1="1.385" y1="0.622" x2="0.915" y2="0.557" gradientUnits="objectBoundingBox">
      <stop offset="0" stop-color="#fff"/>
      <stop offset="0.124" stop-color="#fff" stop-opacity="0.902"/>
      <stop offset="0.389" stop-color="#fff" stop-opacity="0.651"/>
      <stop offset="0.769" stop-color="#fff" stop-opacity="0.255"/>
      <stop offset="1" stop-color="#fff" stop-opacity="0"/>
    </linearGradient>
  </defs>
  <g id="Group_165" data-name="Group 165" transform="translate(-130.443 -72.131)">
    <g id="Group_163" data-name="Group 163" transform="translate(130.443 72.131)">
      <path id="Path_2484" data-name="Path 2484" d="M204.1,114.747l-28.086-28.09a10.252,10.252,0,0,0-14.488,0l-28.09,28.09a10.255,10.255,0,0,0,0,14.488l28.09,28.09a10.263,10.263,0,0,0,14.488,0l28.086-28.09a10.252,10.252,0,0,0,0-14.488Zm-3.313,11.171-28.09,28.09a5.564,5.564,0,0,1-7.858,0l-28.086-28.086a5.564,5.564,0,0,1,0-7.858l28.086-28.09a5.564,5.564,0,0,1,7.858,0l28.09,28.09A5.559,5.559,0,0,1,200.792,125.918Z" transform="translate(-130.443 -79.963)" fill="url(#linear-gradient)"/>
      <path id="Path_2485" data-name="Path 2485" d="M269.7,114.844l.105,2.4c5.668-.025,6.348,4.854,5.575,8.788-1.492,7.593-8.461,12.177-20.079,21.991-5.046,4.262-9.576,11.7-4.178,20.82,2.117-4.321,8.622-9.356,18.707-18.084,9.773-8.458,13.091-13.335,13.383-21.42C283.489,121.752,278.484,115.707,269.7,114.844Z" transform="translate(-210.777 -101.15)" fill="url(#linear-gradient-2)"/>
      <path id="Path_2486" data-name="Path 2486" d="M190.326,106.335c-15.742,13.648-30.188,21.012-31.391,30.849-.989,8.11,5.692,13.572,12.6,10.677l1.607,1.607c-11.065,5.85-27.378-3.5-25.408-19.929,1.859-15.5,18.586-25.012,34.8-37.437,8.622-6.6,12.536-11.193,10.14-15.414-1.249-2.209-4.963-2.844-8.98-.324a10.044,10.044,0,0,0-3.155-.533c7.023-6.029,14.68-3.569,17.942-.5C203.77,80.3,206.073,92.691,190.326,106.335Z" transform="translate(-142.077 -72.131)" fill="url(#linear-gradient-3)"/>
      <g id="Group_162" data-name="Group 162" transform="translate(6.772 1.279)">
        <path id="Path_2487" data-name="Path 2487" d="M253.892,171.333c-3.663-8.23,1.381-14.271,4.909-17.251,1.8-1.523,3.467-2.9,5.075-4.225,8.784-7.257,14.086-11.637,15.434-18.5.382-1.94.716-5.565-1.325-8.045a5.816,5.816,0,0,0-1.039-.988,11.961,11.961,0,0,1,7.664,12.049c-.268,7.446-3.171,12.044-12.941,20.5-1.741,1.506-3.374,2.9-4.9,4.2C260.673,164.287,256.286,168.037,253.892,171.333Z" transform="translate(-220.221 -107.513)" fill="url(#linear-gradient-4)"/>
        <path id="Path_2488" data-name="Path 2488" d="M168.65,152.65a17.29,17.29,0,0,1-12.7-5.845,18.1,18.1,0,0,1-4.236-14.4c1.49-12.424,13.025-20.881,26.382-30.673,2.592-1.9,5.273-3.866,7.928-5.9,8.673-6.645,13.451-11.816,10.474-17.061a5.58,5.58,0,0,0-4.93-2.6q.526-.047,1.059-.046a11.541,11.541,0,0,1,7.689,2.854,12.344,12.344,0,0,1,3.565,9.311c-.09,4.491-2.19,11.571-11.679,19.794-4.615,4-9.191,7.515-13.228,10.615-9.879,7.586-17.682,13.578-18.6,21.046a11.957,11.957,0,0,0,2.7,9.541,9.777,9.777,0,0,0,6.686,3.329Q169.215,152.651,168.65,152.65Z" transform="translate(-151.568 -76.121)" fill="url(#linear-gradient-5)"/>
        <g id="Group_161" data-name="Group 161">
          <path id="Path_2489" data-name="Path 2489" d="M253.892,171.333c-3.663-8.23,1.381-14.271,4.909-17.251,1.8-1.523,3.467-2.9,5.075-4.225,8.784-7.257,14.086-11.637,15.434-18.5.382-1.94.716-5.565-1.325-8.045a5.816,5.816,0,0,0-1.039-.988,11.961,11.961,0,0,1,7.664,12.049c-.268,7.446-3.171,12.044-12.941,20.5-1.741,1.506-3.374,2.9-4.9,4.2C260.673,164.287,256.286,168.037,253.892,171.333Z" transform="translate(-220.221 -107.513)" fill="url(#linear-gradient-6)"/>
          <path id="Path_2490" data-name="Path 2490" d="M168.65,152.65a17.29,17.29,0,0,1-12.7-5.845,18.1,18.1,0,0,1-4.236-14.4c1.49-12.424,13.025-20.881,26.382-30.673,2.592-1.9,5.273-3.866,7.928-5.9,8.673-6.645,13.451-11.816,10.474-17.061a5.58,5.58,0,0,0-4.93-2.6q.526-.047,1.059-.046a11.541,11.541,0,0,1,7.689,2.854,12.344,12.344,0,0,1,3.565,9.311c-.09,4.491-2.19,11.571-11.679,19.794-4.615,4-9.191,7.515-13.228,10.615-9.879,7.586-17.682,13.578-18.6,21.046a11.957,11.957,0,0,0,2.7,9.541,9.777,9.777,0,0,0,6.686,3.329Q169.215,152.651,168.65,152.65Z" transform="translate(-151.568 -76.121)" fill="url(#linear-gradient-7)"/>
        </g>
      </g>
    </g>
    <g id="Group_164" data-name="Group 164" transform="translate(131.469 76.852)">
      <path id="Path_2491" data-name="Path 2491" d="M205.552,117.644,177.467,89.555a9.228,9.228,0,0,0-13.04,0l-28.09,28.09a9.23,9.23,0,0,0,0,13.039l28.09,28.09a9.239,9.239,0,0,0,13.039,0l28.087-28.091a9.228,9.228,0,0,0,0-13.038Zm-1.864,11.172L175.6,156.9a6.589,6.589,0,0,1-9.31,0L138.2,128.819a6.594,6.594,0,0,1,0-9.307L166.292,91.42a6.588,6.588,0,0,1,9.306,0l28.09,28.09a6.583,6.583,0,0,1,0,9.3Z" transform="translate(-133.641 -86.857)" fill="url(#linear-gradient-8)"/>
      <path id="Path_2492" data-name="Path 2492" d="M205.552,117.644,177.467,89.555a9.228,9.228,0,0,0-13.04,0l-28.09,28.09a9.23,9.23,0,0,0,0,13.039l28.09,28.09a9.239,9.239,0,0,0,13.039,0l28.087-28.091a9.228,9.228,0,0,0,0-13.038Zm-1.864,11.172L175.6,156.9a6.589,6.589,0,0,1-9.31,0L138.2,128.819a6.594,6.594,0,0,1,0-9.307L166.292,91.42a6.588,6.588,0,0,1,9.306,0l28.09,28.09a6.583,6.583,0,0,1,0,9.3Z" transform="translate(-133.641 -86.857)" fill="url(#linear-gradient-9)"/>
    </g>
  </g>
</svg>
