<svg xmlns="http://www.w3.org/2000/svg" xmlns:xlink="http://www.w3.org/1999/xlink" width="88.843" height="81.428" viewBox="0 0 88.843 81.428">
    <defs>
        <linearGradient id="linear-gradient" y1="0.5" x2="1" y2="0.5" gradientUnits="objectBoundingBox">
            <stop offset="0" stop-color="#1d55c5" />
            <stop offset="1" stop-color="#e93354" />
        </linearGradient>
        <filter id="Union_1" x="0" y="0" width="88.843" height="81.428" filterUnits="userSpaceOnUse">
            <feOffset dy="6" input="SourceAlpha" />
            <feGaussianBlur stdDeviation="10" result="blur" />
            <feFlood flood-color="#1f54c3" flood-opacity="0.149" />
            <feComposite operator="in" in2="blur" />
            <feComposite in="SourceGraphic" />
        </filter>
    </defs>
    <g transform="matrix(1, 0, 0, 1, 0, 0)" filter="url(#Union_1)">
        <path id="Union_1-2" data-name="Union 1" d="M2.576,21.428a2.544,2.544,0,0,1-1.688-.6L9.061,13.1c.2.139.395.268.564.387q.918.641,1.489,1a9.342,9.342,0,0,0,1.521.731,4.873,4.873,0,0,0,1.771.372h.032a4.875,4.875,0,0,0,1.771-.372,9.3,9.3,0,0,0,1.52-.731q.575-.357,1.49-1c.179-.123.369-.253.566-.384l8.17,7.727a2.544,2.544,0,0,1-1.687.6Zm19.067-9.57q2.3-1.519,5.59-3.624a8.782,8.782,0,0,0,1.609-1.324V18.665ZM0,6.909A8.485,8.485,0,0,0,1.625,8.234q3.42,2.2,5.577,3.622L0,18.665Zm14.421,6.727h-.016a2.674,2.674,0,0,1-.8-.137,4.86,4.86,0,0,1-.925-.41c-.327-.183-.606-.347-.837-.5s-.521-.339-.87-.578l-.443-.3-.24-.162c-.45-.3-.994-.658-1.626-1.074-.74-.488-1.6-1.054-2.591-1.7Q3.314,6.97,2.77,6.6A7.722,7.722,0,0,1,.887,4.848,3.45,3.45,0,0,1,0,2.77,2.954,2.954,0,0,1,.668.792,2.357,2.357,0,0,1,2.576,0h23.69a2.572,2.572,0,0,1,1.812.714,2.28,2.28,0,0,1,.765,1.722,3.879,3.879,0,0,1-.79,2.3A7.462,7.462,0,0,1,26.092,6.6l-5.9,3.877-1.629,1.07c-.052.034-.132.09-.24.163s-.264.178-.445.3c-.346.239-.637.431-.867.578s-.512.313-.839.5a4.874,4.874,0,0,1-.925.41,2.671,2.671,0,0,1-.8.137Z" transform="translate(30 24)" fill="url(#linear-gradient)" />
    </g>
</svg>
