<svg xmlns="http://www.w3.org/2000/svg" width="24.223" height="21.195" viewBox="0 0 24.223 21.195">
    <path id="Path_2139" data-name="Path 2139" d="M329.223,248.923a8.309,8.309,0,0,1-2.774.847,5.676,5.676,0,0,0,2.083-2.923,7.737,7.737,0,0,1-3.118,1.189l0,0a4.825,4.825,0,0,0-3.614-1.664,5.2,5.2,0,0,0-5,5.382,5.733,5.733,0,0,0,.129,1.2h0a14.054,14.054,0,0,1-10.586-5.583,5.637,5.637,0,0,0,1.515,7.111,3.044,3.044,0,0,1-2.181-.607,5.144,5.144,0,0,0,3.854,5.258,3.647,3.647,0,0,1-2.08.168,4.809,4.809,0,0,0,4.466,3.654A7.832,7.832,0,0,1,305,265.19a14.21,14.21,0,0,0,7.816,2.38c8.062,0,14.324-7.036,13.987-15.717,0-.01,0-.02,0-.03s0-.046,0-.067,0-.054,0-.081A9.01,9.01,0,0,0,329.223,248.923Z" transform="translate(-305 -246.375)" fill="#38a1f3" />
</svg>
