<svg xmlns="http://www.w3.org/2000/svg" xmlns:xlink="http://www.w3.org/1999/xlink" width="91.726" height="86.249" viewBox="0 0 91.726 86.249">
    <defs>
        <linearGradient id="linear-gradient" y1="0.5" x2="1" y2="0.5" gradientUnits="objectBoundingBox">
            <stop offset="0" stop-color="#1d55c5" />
            <stop offset="1" stop-color="#e93354" />
        </linearGradient>
        <filter id="Path_2050" x="0" y="0" width="91.726" height="86.249" filterUnits="userSpaceOnUse">
            <feOffset dy="6" input="SourceAlpha" />
            <feGaussianBlur stdDeviation="10" result="blur" />
            <feFlood flood-color="#1f54c3" flood-opacity="0.149" />
            <feComposite operator="in" in2="blur" />
            <feComposite in="SourceGraphic" />
        </filter>
    </defs>
    <g transform="matrix(1, 0, 0, 1, 0, 0)" filter="url(#Path_2050)">
        <path id="Path_2050-2" data-name="Path 2050" d="M336.726,249.53a11.335,11.335,0,0,1-3.633,1.049,7.061,7.061,0,0,0,2.728-3.62,10.492,10.492,0,0,1-4.084,1.473l0,0a6.476,6.476,0,0,0-4.733-2.06,6.607,6.607,0,0,0-6.546,6.665,6.727,6.727,0,0,0,.169,1.485h0a18.749,18.749,0,0,1-13.864-6.915,6.744,6.744,0,0,0,1.984,8.806,4.155,4.155,0,0,1-2.857-.751,6.4,6.4,0,0,0,5.047,6.511,5.035,5.035,0,0,1-2.724.209c.209,1.964,2.9,4.526,5.849,4.526A10.6,10.6,0,0,1,305,269.676a19.379,19.379,0,0,0,10.237,2.948,18.368,18.368,0,0,0,18.319-19.464c0-.012,0-.025,0-.037,0-.029,0-.057,0-.083s0-.067,0-.1A11.394,11.394,0,0,0,336.726,249.53Z" transform="translate(-275 -222.38)" fill="url(#linear-gradient)" />
    </g>
</svg>
